#!OML:ASF I:\Actors\actors\Patient Classification 2\Patient 1\Session 1\actor1.ASF
:FULLY-SPECIFIED
:DEGREES
437
root -0.622308 18.8346 5.91694 4.2513 -0.232358 -2.18144
lowerback 14.1579 -0.330305 1.98442
upperback 0.853667 0.181229 4.08536
thorax -7.05854 0.0924129 3.1894
lowerneck -0.351347 -3.2108 -2.60063
upperneck -5.74973 -4.76419 -8.09108
head -1.90779 -2.17053 -2.05351
rclavicle 9.93923e-016 1.59028e-015
rhumerus 30.7183 14.5006 -53.4468
rradius 128.611
rwrist -3.86697
rhand -37.0722 -31.8987
rfingers 7.12502
rthumb -10.1443 -61.6342
lclavicle 9.93923e-016 1.59028e-015
lhumerus -28.5344 -33.0088 89.4583
lradius 123.31
lwrist 13.9183
lhand -25.0964 -63.0276
lfingers 7.12502
lthumb 1.41842 -33.0526
rfemur 0 0 0
rtibia 0
rfoot 0 0
rtoes 0
lfemur -10.3298 -2.42961 -15.0309
ltibia 25.2076
lfoot -21.2504 11.7235
ltoes -55.4593
438
root -0.623276 18.835 5.92397 4.26082 -0.054495 -2.15126
lowerback 14.5101 -0.28054 2.19448
upperback 0.581213 0.300405 3.93952
thorax -7.55159 0.142307 2.90094
lowerneck -0.215167 -3.23495 -2.62089
upperneck -5.43844 -4.77153 -7.99179
head -1.82652 -2.18383 -2.01488
rclavicle -5.96354e-016 3.81667e-014
rhumerus 30.0928 14.6709 -53.7589
rradius 128.694
rwrist -3.75867
rhand -37.0593 -31.8052
rfingers 7.12502
rthumb -10.1318 -61.5413
lclavicle -5.96354e-016 3.81667e-014
lhumerus -29.0861 -33.2418 89.6965
lradius 123.387
lwrist 13.7787
lhand -25.2246 -62.7876
lfingers 7.12502
lthumb 1.29465 -32.8118
rfemur 0 0 0
rtibia 0
rfoot 0 0
rtoes 0
lfemur -10.3576 -2.43545 -15.0521
ltibia 25.2146
lfoot -21.1907 11.6606
ltoes -55.5586
439
root -0.622731 18.8352 5.93063 4.29064 0.0837072 -2.08406
lowerback 14.6501 -0.224344 2.21785
upperback 0.530926 0.382594 3.86879
thorax -7.68642 0.180216 2.79759
lowerneck -0.393451 -3.21328 -2.59854
upperneck -5.2884 -4.71797 -7.97607
head -1.7448 -2.16739 -2.01693
rclavicle -3.97569e-015 -1.98785e-014
rhumerus 30.0222 14.6633 -53.896
rradius 128.688
rwrist -3.72828
rhand -36.998 -31.7963
rfingers 7.12502
rthumb -10.0727 -61.5352
lclavicle -3.97569e-015 -1.98785e-014
lhumerus -29.1016 -33.2885 89.6628
lradius 123.397
lwrist 13.6798
lhand -25.2668 -62.8063
lfingers 7.12502
lthumb 1.2539 -32.8302
rfemur 0 0 0
rtibia 0
rfoot 0 0
rtoes 0
lfemur -10.3997 -2.50329 -15.1253
ltibia 25.2284
lfoot -21.2033 11.6707
ltoes -55.6145
440
root -0.622042 18.8361 5.93695 4.32665 0.223351 -2.09671
lowerback 14.6699 -0.183817 2.2418
upperback 0.632766 0.437275 3.87772
thorax -7.58943 0.205897 2.78028
lowerneck -0.883548 -3.18754 -2.6494
upperneck -5.16674 -4.64465 -7.95613
head -1.61536 -2.14601 -2.00966
rclavicle -3.77691e-015 -3.33958e-014
rhumerus 30.3296 14.5685 -53.8419
rradius 128.668
rwrist -3.76233
rhand -36.8521 -31.9919
rfingers 7.12502
rthumb -9.93192 -61.7376
lclavicle -3.77691e-015 -3.33958e-014
lhumerus -28.7964 -33.2545 89.4917
lradius 123.343
lwrist 13.6635
lhand -25.3211 -63.2072
lfingers 7.12502
lthumb 1.20141 -33.2308
rfemur 0 0 0
rtibia 0
rfoot 0 0
rtoes 0
lfemur -10.4557 -2.56543 -15.107
ltibia 25.2419
lfoot -21.1933 11.6478
ltoes -55.6835
441
root -0.621814 18.8374 5.94295 4.35122 0.367974 -2.12628
lowerback 14.5554 -0.148243 2.19324
upperback 0.729257 0.470315 3.92826
thorax -7.42327 0.224445 2.85181
lowerneck -1.0031 -3.16971 -2.65252
upperneck -5.19668 -4.61735 -7.98168
head -1.60411 -2.1334 -2.01959
rclavicle 1.78906e-015 -1.35174e-014
rhumerus 30.5717 14.5579 -53.7331
rradius 128.684
rwrist -3.88901
rhand -36.7704 -32.0102
rfingers 7.12502
rthumb -9.85309 -61.7596
lclavicle 1.78906e-015 -1.35174e-014
lhumerus -28.5835 -33.1458 89.4027
lradius 123.284
lwrist 13.3919
lhand -25.4657 -63.3041
lfingers 7.12502
lthumb 1.06182 -33.327
rfemur 0 0 0
rtibia 0
rfoot 0 0
rtoes 0
lfemur -10.5052 -2.63177 -15.0667
ltibia 25.2595
lfoot -21.172 11.5752
ltoes -55.7037
442
root -0.621559 18.8385 5.94817 4.3554 0.513912 -2.1558
lowerback 14.341 -0.114587 2.03608
upperback 0.80059 0.483645 4.03057
thorax -7.22939 0.237865 3.04397
lowerneck -0.636622 -3.14957 -2.59223
upperneck -5.45632 -4.63742 -8.0859
head -1.75794 -2.12422 -2.05897
rclavicle 2.18663e-015 1.27222e-014
rhumerus 30.7418 14.6285 -53.6158
rradius 128.653
rwrist -4.0127
rhand -36.7604 -31.7016
rfingers 7.12502
rthumb -9.84347 -61.4515
lclavicle 2.18663e-015 1.27222e-014
lhumerus -28.5171 -32.9385 89.4449
lradius 123.255
lwrist 13.0786
lhand -25.6227 -63.0633
lfingers 7.12502
lthumb 0.910196 -33.0855
rfemur 0 0 0
rtibia 0
rfoot 0 0
rtoes 0
lfemur -10.5311 -2.66747 -15.0267
ltibia 25.2756
lfoot -21.1289 11.4554
ltoes -55.6896
443
root -0.621465 18.8385 5.95421 4.35912 0.681833 -2.19166
lowerback 14.226 -0.0832789 1.98029
upperback 0.842842 0.513565 4.09157
thorax -7.12206 0.255153 3.13274
lowerneck -0.378127 -3.12781 -2.58352
upperneck -5.68088 -4.64369 -8.13304
head -1.87855 -2.11172 -2.0727
rclavicle -5.1684e-015 -1.03368e-014
rhumerus 30.8181 14.6338 -53.5654
rradius 128.608
rwrist -4.08088
rhand -36.7943 -31.4222
rfingers 7.12502
rthumb -9.87623 -61.1705
lclavicle -5.1684e-015 -1.03368e-014
lhumerus -28.5314 -32.8739 89.5395
lradius 123.245
lwrist 13.1821
lhand -25.6032 -62.9363
lfingers 7.12502
lthumb 0.928985 -32.9586
rfemur 0 0 0
rtibia 0
rfoot 0 0
rtoes 0
lfemur -10.5398 -2.67699 -14.9748
ltibia 25.2761
lfoot -21.0626 11.3026
ltoes -55.5681
444
root -0.620614 18.8382 5.96106 4.37466 0.859332 -2.15965
lowerback 14.1991 -0.0401389 1.95112
upperback 0.855312 0.563987 4.08502
thorax -7.09582 0.280552 3.13151
lowerneck -0.294572 -3.10019 -2.6041
upperneck -5.78831 -4.61894 -8.11572
head -1.92639 -2.09287 -2.06293
rclavicle -1.74931e-014 1.74931e-014
rhumerus 30.8468 14.5924 -53.5312
rradius 128.564
rwrist -4.10986
rhand -36.805 -31.5497
rfingers 7.12502
rthumb -9.88652 -61.2976
lclavicle -1.74931e-014 1.74931e-014
lhumerus -28.5287 -32.8945 89.6226
lradius 123.184
lwrist 13.2459
lhand -25.4842 -62.9897
lfingers 7.12502
lthumb 1.04396 -33.0125
rfemur 0 0 0
rtibia 0
rfoot 0 0
rtoes 0
lfemur -10.5532 -2.73331 -15.001
ltibia 25.2651
lfoot -21.0388 11.1799
ltoes -55.3876
445
root -0.618476 18.8376 5.96792 4.40839 1.0209 -2.09966
lowerback 14.1635 0.0105901 1.88176
upperback 0.853009 0.61801 4.07347
thorax -7.08112 0.308978 3.14726
lowerneck -0.262402 -3.09328 -2.62209
upperneck -5.81751 -4.61242 -8.09597
head -1.94023 -2.08746 -2.05304
rclavicle -1.11319e-014 -3.97569e-014
rhumerus 30.9745 14.5797 -53.4735
rradius 128.466
rwrist -4.07179
rhand -36.7706 -31.9014
rfingers 7.12502
rthumb -9.85336 -61.6509
lclavicle -1.11319e-014 -3.97569e-014
lhumerus -28.562 -32.8998 89.6942
lradius 123.156
lwrist 13.2048
lhand -25.4288 -63.0709
lfingers 7.12502
lthumb 1.09745 -33.0939
rfemur 0 0 0
rtibia 0
rfoot 0 0
rtoes 0
lfemur -10.594 -2.82689 -15.0678
ltibia 25.2485
lfoot -21.0188 11.1574
ltoes -55.4004
446
root -0.616622 18.838 5.97497 4.44937 1.18143 -2.0772
lowerback 14.1503 0.0573499 1.85095
upperback 0.831763 0.675385 4.06874
thorax -7.09921 0.338029 3.14837
lowerneck -0.286853 -3.10618 -2.63341
upperneck -5.79849 -4.62611 -8.09239
head -1.9297 -2.09517 -2.04994
rclavicle -3.57812e-015 -1.27222e-014
rhumerus 31.0382 14.5483 -53.4424
rradius 128.422
rwrist -4.10535
rhand -36.7618 -31.9946
rfingers 7.12502
rthumb -9.84479 -61.7445
lclavicle -3.57812e-015 -1.27222e-014
lhumerus -28.6635 -32.9482 89.7673
lradius 123.183
lwrist 13.3015
lhand -25.4381 -63.1553
lfingers 7.12502
lthumb 1.08843 -33.1783
rfemur 0 0 0
rtibia 0
rfoot 0 0
rtoes 0
lfemur -10.644 -2.91767 -15.0904
ltibia 25.2276
lfoot -20.9558 11.1657
ltoes -55.4997
447
root -0.615162 18.839 5.98244 4.47124 1.36256 -2.09482
lowerback 14.1797 0.0956334 1.88329
upperback 0.802241 0.733043 4.05216
thorax -7.14911 0.365021 3.10135
lowerneck -0.319957 -3.09715 -2.55957
upperneck -5.77719 -4.61043 -8.12428
head -1.91948 -2.0896 -2.07403
rclavicle 0 2.78299e-014
rhumerus 30.9766 14.4949 -53.4625
rradius 128.451
rwrist -4.13231
rhand -36.715 -32.1933
rfingers 7.12502
rthumb -9.79965 -61.9452
lclavicle 0 2.78299e-014
lhumerus -28.7361 -33.0191 89.8363
lradius 123.185
lwrist 13.4007
lhand -25.4899 -63.1963
lfingers 7.12502
lthumb 1.03846 -33.2191
rfemur 0 0 0
rtibia 0
rfoot 0 0
rtoes 0
lfemur -10.6754 -3.00389 -15.0632
ltibia 25.2181
lfoot -20.9028 11.1092
ltoes -55.5586
448
root -0.613321 18.8391 5.98891 4.49107 1.54789 -2.11578
lowerback 14.2179 0.120175 1.92668
upperback 0.770309 0.774455 4.03121
thorax -7.2056 0.383624 3.04671
lowerneck -0.31949 -3.06063 -2.49233
upperneck -5.76569 -4.55966 -8.13962
head -1.91646 -2.06556 -2.09172
rclavicle -1.39149e-015 -3.26007e-014
rhumerus 30.9309 14.5095 -53.5122
rradius 128.463
rwrist -3.98572
rhand -36.6916 -32.2879
rfingers 7.12502
rthumb -9.7771 -62.0409
lclavicle -1.39149e-015 -3.26007e-014
lhumerus -28.8205 -33.0369 89.9086
lradius 123.186
lwrist 13.4219
lhand -25.4894 -63.237
lfingers 7.12502
lthumb 1.03891 -33.2598
rfemur 0 0 0
rtibia 0
rfoot 0 0
rtoes 0
lfemur -10.72 -3.07515 -15.0338
ltibia 25.2252
lfoot -20.863 11.0325
ltoes -55.6242
449
root -0.611546 18.8391 5.99373 4.52583 1.72645 -2.10847
lowerback 14.238 0.147143 1.9262
upperback 0.739079 0.81206 4.02178
thorax -7.25172 0.401995 3.0299
lowerneck -0.349123 -3.02713 -2.56473
upperneck -5.71061 -4.50411 -8.05982
head -1.88671 -2.04044 -2.05397
rclavicle -1.19271e-014 -3.10104e-014
rhumerus 30.8912 14.5694 -53.535
rradius 128.465
rwrist -3.87127
rhand -36.7355 -31.99
rfingers 7.12502
rthumb -9.81946 -61.741
lclavicle -1.19271e-014 -3.10104e-014
lhumerus -28.8946 -33.0697 89.9986
lradius 123.198
lwrist 13.3294
lhand -25.6589 -63.3654
lfingers 7.12502
lthumb 0.875154 -33.3875
rfemur 0 0 0
rtibia 0
rfoot 0 0
rtoes 0
lfemur -10.7904 -3.13828 -15.0374
ltibia 25.2394
lfoot -20.8346 10.9583
ltoes -55.7027
450
root -0.60997 18.8393 5.99856 4.5647 1.89375 -2.10767
lowerback 14.2165 0.19022 1.90796
upperback 0.73691 0.865329 4.01833
thorax -7.24433 0.428548 3.02558
lowerneck -0.493732 -3.01856 -2.62576
upperneck -5.60587 -4.47133 -7.97787
head -1.82165 -2.03151 -2.01856
rclavicle -6.55989e-015 -1.27222e-014
rhumerus 30.8768 14.5913 -53.5365
rradius 128.488
rwrist -3.93226
rhand -36.7237 -32.0388
rfingers 7.12502
rthumb -9.80806 -61.7904
lclavicle -6.55989e-015 -1.27222e-014
lhumerus -28.8451 -33.1481 90.0308
lradius 123.236
lwrist 13.3243
lhand -25.8369 -63.3569
lfingers 7.12502
lthumb 0.703292 -33.3783
rfemur 0 0 0
rtibia 0
rfoot 0 0
rtoes 0
lfemur -10.8614 -3.22938 -15.034
ltibia 25.2606
lfoot -20.837 10.8956
ltoes -55.7321
451
root -0.607999 18.839 6.00459 4.57237 2.0524 -2.14352
lowerback 14.1872 0.233468 1.90242
upperback 0.820814 0.917863 4.03441
thorax -7.14037 0.454318 3.03382
lowerneck -0.883554 -3.01797 -2.59261
upperneck -5.46795 -4.43837 -8.01632
head -1.70956 -2.02913 -2.04238
rclavicle -3.77691e-015 -2.78299e-014
rhumerus 31.0213 14.5218 -53.4824
rradius 128.499
rwrist -4.09036
rhand -36.7741 -32.1183
rfingers 7.12502
rthumb -9.85671 -61.8676
lclavicle -3.77691e-015 -2.78299e-014
lhumerus -28.6144 -33.1663 89.9385
lradius 123.254
lwrist 13.4323
lhand -25.7937 -63.3575
lfingers 7.12502
lthumb 0.744951 -33.379
rfemur 0 0 0
rtibia 0
rfoot 0 0
rtoes 0
lfemur -10.8954 -3.32791 -14.9903
ltibia 25.2925
lfoot -20.8358 10.8461
ltoes -55.7033
452
root -0.605445 18.8389 6.01107 4.566 2.2262 -2.19296
lowerback 14.3291 0.261645 2.00882
upperback 0.826814 0.977 4.01157
thorax -7.21351 0.479221 2.9377
lowerneck -1.32209 -3.02467 -2.56072
upperneck -5.2472 -4.40673 -8.07723
head -1.56359 -2.03133 -2.07406
rclavicle 5.1684e-015 2.38542e-015
rhumerus 31.074 14.4645 -53.4667
rradius 128.479
rwrist -4.16768
rhand -36.8742 -32.0048
rfingers 7.12502
rthumb -9.95331 -61.7494
lclavicle 5.1684e-015 2.38542e-015
lhumerus -28.5477 -33.2225 89.8853
lradius 123.214
lwrist 13.4721
lhand -26.0745 -63.8982
lfingers 7.12502
lthumb 0.473754 -33.919
rfemur 0 0 0
rtibia 0
rfoot 0 0
rtoes 0
lfemur -10.9189 -3.41999 -14.9309
ltibia 25.3246
lfoot -20.8082 10.7827
ltoes -55.7249
